<svg id="Capa_1" enable-background="new 0 0 512 512" height="512" viewBox="0 0 512 512" width="512" xmlns="http://www.w3.org/2000/svg"><g><g><path clip-rule="evenodd" d="m215.888 181.404v-35.072c0-2.426-2.002-4.395-4.433-4.395h-10.067-64.008-10.096c-2.431 0-4.404 1.969-4.404 4.395v35.072c0 2.426 1.973 4.423 4.404 4.423h84.171c2.431.001 4.433-1.997 4.433-4.423z" fill="#cecece" fill-rule="evenodd"/></g><g><path clip-rule="evenodd" d="m467.801 477.162v-66.492c0-6.25-5.12-11.329-11.383-11.329h-33.348-51.166-31.003c-6.235 0-11.354 5.08-11.354 11.329v66.491h138.254z" fill="#fdb440" fill-rule="evenodd"/></g><g><path clip-rule="evenodd" d="m467.801 467.088h-138.255-15.73c-10.325 0-18.762 8.418-18.762 18.72v13.669c0 2.768 2.288 5.023 5.062 5.023h197.115c2.774 0 5.034-2.254 5.034-5.023v-13.669c0-10.302-8.437-18.72-18.733-18.72z" fill="#cecece" fill-rule="evenodd"/></g><g><path clip-rule="evenodd" d="m211.455 141.938h-10.067-18.676c2.431 0 4.433 1.969 4.433 4.395v35.072c0 2.426-2.002 4.423-4.433 4.423h28.744c2.431 0 4.433-1.998 4.433-4.423v-35.072c-.001-2.426-2.003-4.395-4.434-4.395z" fill="#baafb9" fill-rule="evenodd"/></g><g><path clip-rule="evenodd" d="m445.178 7.5h-95.383c-2.688 0-4.862 2.169-4.862 4.851v8.19 51.053 8.19c0 2.654 2.174 4.851 4.862 4.851h22.108 51.166 22.108c2.688 0 4.862-2.197 4.862-4.851v-8.19-51.053-8.19c.001-2.682-2.172-4.851-4.861-4.851z" fill="#fdb440" fill-rule="evenodd"/></g><g><path clip-rule="evenodd" d="m450.04 20.541v-8.19c0-2.682-2.174-4.851-4.862-4.851h-34.75c2.66 0 4.862 2.169 4.862 4.851v8.19 51.053 8.19c0 2.654-2.202 4.851-4.862 4.851h12.641 22.108c2.688 0 4.862-2.197 4.862-4.851v-8.19-51.053z" fill="#fe9737" fill-rule="evenodd"/></g><g><path clip-rule="evenodd" d="m467.801 410.67c0-6.25-5.12-11.329-11.383-11.329h-33.348-1.401c6.235 0 11.354 5.08 11.354 11.329v56.418h15.73 19.048z" fill="#fe9737" fill-rule="evenodd"/></g><g><path clip-rule="evenodd" d="m502.265 485.808c0-10.302-8.437-18.72-18.733-18.72h-15.73-19.048c10.325 0 18.762 8.418 18.762 18.72v13.669c0 2.768-2.288 5.023-5.062 5.023h34.778c2.774 0 5.034-2.254 5.034-5.023v-13.669z" fill="#baafb9" fill-rule="evenodd"/></g><g><path clip-rule="evenodd" d="m92.105 321.036v-147.536c0-1.284-.801-2.34-2.259-2.34h-76.908c-1.973 0-3.546 2.112-3.546 4.709v323.923c0 2.568 1.573 4.709 3.546 4.709h158.333c1.945 0 3.546-2.14 3.546-4.709v-176.416c0-1.541-1.602-2.34-2.574-2.34h-38.782z" fill="#e8eaea" fill-rule="evenodd"/></g><g><path clip-rule="evenodd" d="m92.105 396.459v-38.011h-46.047c-2.031 0-3.718 1.684-3.718 3.71v30.592c0 2.055 1.687 3.71 3.718 3.71h46.047z" fill="#6bd9e7" fill-rule="evenodd"/></g><g><path clip-rule="evenodd" d="m141.841 392.749v-30.592c0-2.026-1.659-3.71-3.689-3.71h-46.047v38.011h46.047c2.03.001 3.689-1.654 3.689-3.709z" fill="#6bd9e7" fill-rule="evenodd"/></g><g><path clip-rule="evenodd" d="m141.841 437.581c0-2.026-1.659-3.71-3.689-3.71h-46.047v38.011h46.047c2.031 0 3.689-1.655 3.689-3.71z" fill="#6bd9e7" fill-rule="evenodd"/></g><g><path clip-rule="evenodd" d="m92.105 471.882v-38.011h-46.047c-2.031 0-3.718 1.684-3.718 3.71v30.592c0 2.055 1.687 3.71 3.718 3.71h46.047z" fill="#6bd9e7" fill-rule="evenodd"/></g><g><path clip-rule="evenodd" d="m92.105 358.448h-46.047c-2.031 0-3.718 1.684-3.718 3.71v15.296c0-2.026 1.687-3.71 3.718-3.71h46.047z" fill="#00c7dd" fill-rule="evenodd"/></g><g><path clip-rule="evenodd" d="m138.151 358.448h-46.046v15.296h46.047c2.031 0 3.689 1.684 3.689 3.71v-15.296c0-2.027-1.659-3.71-3.69-3.71z" fill="#00c7dd" fill-rule="evenodd"/></g><g><path clip-rule="evenodd" d="m138.151 433.871h-46.046v15.296h46.047c2.031 0 3.689 1.684 3.689 3.71v-15.296c0-2.026-1.659-3.71-3.69-3.71z" fill="#00c7dd" fill-rule="evenodd"/></g><g><path clip-rule="evenodd" d="m92.105 433.871h-46.047c-2.031 0-3.718 1.684-3.718 3.71v15.296c0-2.026 1.687-3.71 3.718-3.71h46.047z" fill="#00c7dd" fill-rule="evenodd"/></g><g><path clip-rule="evenodd" d="m174.817 499.791v-176.415c0-1.541-1.602-2.34-2.574-2.34h-19.363c.972 0 2.545.799 2.545 2.34v176.416c0 2.568-1.602 4.709-3.546 4.709h19.391c1.946-.001 3.547-2.141 3.547-4.71z" fill="#d4d6d8" fill-rule="evenodd"/></g><g><path clip-rule="evenodd" d="m72.713 207.601v113.434h19.391v-53.421-60.013-34.101c0-1.284-.801-2.34-2.259-2.34h-19.42c1.487 0 2.288 1.056 2.288 2.34z" fill="#d4d6d8" fill-rule="evenodd"/></g><g><path d="m174.817 275.114c4.143 0 7.5-3.357 7.5-7.5s-3.357-7.5-7.5-7.5h-33.856v-22.492c0-4.143-3.357-7.5-7.5-7.5s-7.5 3.357-7.5 7.5v22.492h-26.357v-86.614c0-5.519-4.287-9.841-9.76-9.841h-76.906c-6.194 0-11.047 5.363-11.047 12.209v323.923c0 6.846 4.853 12.209 11.047 12.209h158.332c6.091 0 11.047-5.477 11.047-12.209v-77.763c0-4.143-3.357-7.5-7.5-7.5s-7.5 3.357-7.5 7.5v74.972h-150.425v-318.341h67.713v18.874h-25.334c-4.143 0-7.5 3.357-7.5 7.5s3.357 7.5 7.5 7.5h25.333v27.234h-22.73c-4.143 0-7.5 3.357-7.5 7.5s3.357 7.5 7.5 7.5h22.73v66.269c0 4.143 3.357 7.5 7.5 7.5h75.213v58.62c0 4.143 3.357 7.5 7.5 7.5s7.5-3.357 7.5-7.5v-63.78c0-6.078-5.229-9.84-10.074-9.84h-31.282v-38.422zm-48.856 38.422h-26.357v-38.422h26.356v38.422z"/><path d="m430.57 346.885v-37.035-67.856c0-.003 0-.007 0-.01v-21.626-83.265c0-.003 0-.007 0-.01v-6.216-38.731h14.608c6.816 0 12.361-5.541 12.361-12.352v-.69h38.862c3.322 0 6.37-1.076 8.744-2.862.43-.288.837-.624 1.213-1.011.085-.087.158-.181.238-.271 2.175-2.197 3.511-5.089 3.511-8.264v-41.236c0-6.843-6.148-12.409-13.706-12.409h-38.861v-.689c0-6.811-5.545-12.352-12.361-12.352h-95.383c-6.816 0-12.362 5.541-12.362 12.352v.689h-14.18-83.444c-.009 0-.017 0-.026 0h-6.222-107.366c-7.573 0-13.734 5.566-13.734 12.409v41.235c0 6.842 6.161 12.408 13.734 12.408h35.687v25.855l-27.745 29.489h-6.854c-6.564 0-11.904 5.336-11.904 11.895v35.072c0 6.574 5.34 11.923 11.904 11.923h84.172c6.58 0 11.933-5.349 11.933-11.923v-35.072c0-6.559-5.353-11.895-11.933-11.895h-6.826l-27.746-29.489v-25.854h56.68 89.691 14.18v.69c0 6.811 5.546 12.352 12.362 12.352h14.607v38.729 89.492 89.492 81.991h-23.504c-10.396 0-18.854 8.447-18.854 18.83v48.917h-8.229c-14.481 0-26.263 11.763-26.263 26.221v13.669c0 6.905 5.636 12.522 12.563 12.522h197.115c6.911 0 12.533-5.617 12.533-12.522v-13.669c0-14.458-11.769-26.221-26.233-26.221h-8.229v-48.917c0-10.383-8.472-18.83-18.884-18.83h-25.849v-44.945c0-.003 0-.006 0-.01zm64.538-318.841v25.8l-26.575-25.801zm-37.568 10.232 26.592 25.818h-26.592zm-330.078 25.814v-36.049h4.158l37.12 36.05zm80.926 85.348v28.89h-78.009v-28.89zm-24.355-15h-29.3l14.65-15.571zm-30.883-106.397h68.16l-34.08 33.098zm80.413 36.053-27.844-.001 34.079-33.097 34.08 33.098zm24.722-36.053h64.969 3.192l-34.081 33.098zm64.969 36.053h-12.401l26.581-25.814v25.814zm133.164 342.747c2.142 0 3.884 1.718 3.884 3.83v48.917h-43.667c-4.143 0-7.5 3.357-7.5 7.5s3.357 7.5 7.5 7.5h66.896c6.194 0 11.233 5.033 11.233 11.221v11.191h-192.21v-11.191c0-6.188 5.053-11.221 11.263-11.221h66.496c4.143 0 7.5-3.357 7.5-7.5s-3.357-7.5-7.5-7.5h-43.267v-48.917c0-2.076 1.766-3.83 3.854-3.83h31.003 51.167zm-43.825-269.754-33.189 34.022v-40.244-27.801zm-22.896-44.951h25.873v26.523zm25.873 63.379v64.842 3.202l-33.19-34.023zm-2.977 86.473-33.189 34.023v-55.654-12.392zm2.977 18.429v49.433 18.612l-33.189-34.023zm-2.977 86.474-33.189 34.022v-68.045zm2.977 18.428v26.522h-25.873zm7.5-288.183h-51.068c-.005 0-.011 0-.017 0h-.082-19.47v-62.136h90.106v62.136z"/><path d="m149.341 362.157c0-6.182-5.02-11.21-11.189-11.21h-92.094c-6.186 0-11.218 5.028-11.218 11.21v30.592c0 6.182 5.032 11.21 11.218 11.21h92.094c6.17 0 11.189-5.028 11.189-11.21zm-64.737 26.802h-34.764v-23.012h34.765v23.012zm49.737 0h-34.737v-23.012h34.736v23.012z"/><path d="m138.151 426.371h-92.093c-6.186 0-11.218 5.028-11.218 11.21v30.592c0 6.181 5.032 11.209 11.218 11.209h92.094c6.17 0 11.189-5.028 11.189-11.209v-30.592c0-6.182-5.02-11.21-11.19-11.21zm-53.547 38.011h-34.764v-23.011h34.765v23.011zm49.737 0h-34.737v-23.011h34.736v23.011z"/></g></g></svg>