<svg xmlns="http://www.w3.org/2000/svg" viewBox="0 0 49.96 52.69"><defs><style>.cls-1{fill:#3f9cd1;}</style></defs><g id="Layer_2" data-name="Layer 2"><g id="Layer_1-2" data-name="Layer 1"><path class="cls-1" d="M40.18,29.35s.42-3.16,1.58-2.84,2.53.42,1.47,2.11S40.5,31.46,40.18,29.35Z"/><path class="cls-1" d="M42.39,25.35s1.79-8.52,4-8.74,4-.21,3.48,2S46,26.19,44.39,26.49,42.27,25.9,42.39,25.35Z"/><path class="cls-1" d="M35.76,24.41s2.63-1.16,3.89-6,1.22-4.73,2.24-6.31,2.5-6.21.92-7.58-4.74,0-5.05,4.73a17.6,17.6,0,0,1-3.27,9.48C33.34,20.19,32.6,25.88,35.76,24.41Z"/><path class="cls-1" d="M28,20.77s1.69-.21,1.58-3.27S27.94,14.13,28,13.71s.85.74,1.59-4S30.45.45,28,0s-3.89,4.31-3.58,7.58,1.9,6.05,1.79,6.76S24.15,22,28,20.77Z"/><path class="cls-1" d="M7.2,35a5.12,5.12,0,0,0-.74-5.16c-2-2.42-6-2.51-6.32-2s-.31,2.52,2.21,4.83S5.72,36,7.2,35Z"/><path class="cls-1" d="M35.2,27.83c-5.47-.33-4.53-1.53-5.89-3.14s-4-2.24-4.89-1.19-2-2.63-3.12-5.37S20.15,7.4,18.25,5.29A3.61,3.61,0,0,0,15.09,3S12.15,4.66,12.25,7.5,14.15,18.72,16,21.58s2.84,9.92,1.69,11.61-2.64,4.63-5.48,6.53,1.16,9.89,5.37,10.63,6.21-1.37,8.84-.63,1.66,2,3.62,2.84,8.72-2.63,8.29-8.74c0-3.58-.12-4.21,1.15-6S40.68,28.16,35.2,27.83Zm-5.69,6.79c.8-1.39,1.73-2.59,2.45-2.2s.11,1.95-.66,2.74a22.91,22.91,0,0,1-1.89,1.39c-.12.2-1.06,2.44-1.81,1.29,0,0-.4-.41.27-1.18S29,36.13,29.08,36,28.7,36,29.51,34.62Zm-4.45.16c.69-1.53.68-1.49.74-2.12s.66-2.14,1.36-2.17,1.23,1,.32,2.3A5.94,5.94,0,0,0,26.34,36c0,.63-1,2.27-1.52,1.22A2.88,2.88,0,0,1,25.06,34.78Zm-2.71-2.09c.33-.68.79-.31,1.33.21S22.89,36,22.89,36c-.09.17-.41.29-.76-.12S22,33.38,22.35,32.69Zm.27,4.84c-.52.49-.72-.17-.64-.83s.46-.4.83-.24S22.62,37.53,22.62,37.53Zm9.19,8.81c-1.15.08-1.59.18-1.75-.41a1.7,1.7,0,0,1,1.27-1.19,2.12,2.12,0,0,1,2.07.81C33.37,45.75,33,46.27,31.81,46.34Zm3.25-9.28-.55.63a13.93,13.93,0,0,1-3.95,2.88c-1.1.36-2.83,2-2.88,2.68a7.14,7.14,0,0,0,.06,2.86c.34,1.09-2.38,2.34-3.64,1.65s-1.33-1.67-2.17-2-.86.18-1.55,0-1.72-2.51-.32-4c.75-.93.91-1.07,1-1.81s1.73-2.76,3.22-1.7,1.51.55,2.2.42,1.51.25,1.53.72S29,39,29.91,38.57s2.59-2.43,3.5-2.71,1.23-.23,1.45-.08C35.33,36.1,35.06,37.06,35.06,37.06Z"/><path class="cls-1" d="M24.46,44.49s.13-.2.2-.14.16.11,0,.19S24.41,44.65,24.46,44.49Z"/><path class="cls-1" d="M24.74,44.29s.4-.53.56-.47.28.11.18.25-.52.39-.64.36S24.72,44.32,24.74,44.29Z"/><path class="cls-1" d="M24.31,44a.65.65,0,0,0,.47-.29c.24-.29.23-.28.36-.36s.37-.35.3-.49-.32-.16-.5.16a1.32,1.32,0,0,1-.53.55C24.28,43.64,24.05,44,24.31,44Z"/><path class="cls-1" d="M23.9,43.51s.12,0,.21-.17,0-.29,0-.31,0,.07.24-.23.35-.61.2-.72-.41.17-.49.41A3.74,3.74,0,0,0,24,43C24,43.06,23.59,43.47,23.9,43.51Z"/><path class="cls-1" d="M23.24,42.09a3.2,3.2,0,0,0-.2,1.09,1.23,1.23,0,0,1-.25.85,1.62,1.62,0,0,1-.59.28c-.26,0-.24.72,0,.9s.47.11.63.24.05.2.16.32a.64.64,0,0,0,.85-.34c.11-.25.13-.29.27-.37s.39-.63,0-.83-.27-.25-.31-.41-.2-.28-.3-.24,0-.24,0-.47a7.1,7.1,0,0,0,.2-1c0-.19-.07-.27-.13-.3s-.28.08-.28.08"/><path class="cls-1" d="M22,43.82a.39.39,0,0,0,.12-.38c-.06-.23-.34-.37-.37-.34s-.11.16,0,.4S21.87,43.84,22,43.82Z"/></g></g></svg>